<svg id="Layer_1" data-name="Layer 1" xmlns="http://www.w3.org/2000/svg" viewBox="0 0 187.3 571.75"><defs><style>.cls-1{fill:#be5103;}</style></defs><text x="-87.83" y="109.56"/><path class="cls-1" d="M89.54,317.34l-1.71-40.16L123.72,275q19.65-1.2,33.33-7.35a68.93,68.93,0,0,0,36.57-36.91,114.36,114.36,0,0,0,7.18-24.27L223.53,77.57l50.24-25.12h1.37L248.82,201a214.56,214.56,0,0,1-12.65,44.43A114.4,114.4,0,0,1,213.27,281Q198.75,296.32,176,305.38T120.31,316ZM238.23,96.71a128.24,128.24,0,0,0-39.48,7.61,106.92,106.92,0,0,0-32,18.28,84.58,84.58,0,0,0-21.45,26.66A71.18,71.18,0,0,0,137.57,182q0,8.37,4.53,13t12.73,4.61a44.85,44.85,0,0,0,27.34-9q12.14-9,20.68-26.49t13-42.81l1.19-6.83,21.54,14.35-19.83,68.7H192.08l11.62-16.75q-8,27.69-25.8,42.9T135.17,238.9q-21.52,0-33.24-12.9t-11.7-36.32q0-31.27,13.67-56.48t38.37-43.32Q167,71.76,200,62.1t71.86-9.65H275Z" transform="translate(-87.83 109.56)"/></svg>